# xmcd
#
# Track frame offsets:
#	150
#	11077
#	25209
#	36372
#	48838
#	61050
#	75809
#	89203
#	101097
#	112005
#	126139
#	140004
#	153570
#	167922
#	181563
#	194244
#	208165
#	221199
#	233394
#	247149
#	260506
#	273096
#	285793
#	299675
#	313777
#
# Disc length: 4362 seconds
#
# Revision: 0
# Processed by: cddbd v1.5.2PL0 Copyright (c) Steve Scherf et al.
# Submitted via: dBpowerAMP V4.0
#
DISCID=75110819
DTITLE=Jazz Gillum - Take One More Chance With Me
DYEAR=1900
DGENRE=
TTITLE0=Don't You Scandalize My Name
TTITLE1=Sarah Jane
TTITLE2=Gillum's Windy Blues
TTITLE3=You're Laughing Now
TTITLE4=I'm Gonna Get It
TTITLE5=Mule Blues
TTITLE6=Let Her Go
TTITLE7=She Won't Treat Me Kind
TTITLE8=I'll Get Along Somehow
TTITLE9=Against My Will
TTITLE10=Got To Reap What You Sow
TTITLE11=Keyhole Blues
TTITLE12=Riley Spring Blues
TTITLE13=I Got Somebody Else
TTITLE14=It Looks To Bad For You
TTITLE15=Me And My Buddy
TTITLE16=It's All Over Now
TTITLE17=One Letter Home
TTITLE18=You Drink To Much Whiskey
TTITLE19=I'm Gonna Leave You On The Outskirts Of Town
TTITLE20=Woke Up Cold In Hand
TTITLE21=Whiskey Headed Buddies
TTITLE22=Country Woman Blues
TTITLE23=Take One More Chance With Me
TTITLE24=Look What You Are Today
EXTD=jesus christ ive i rule thank you
EXTT0=
EXTT1=
EXTT2=
EXTT3=
EXTT4=
EXTT5=
EXTT6=
EXTT7=
EXTT8=
EXTT9=
EXTT10=
EXTT11=
EXTT12=
EXTT13=
EXTT14=
EXTT15=
EXTT16=
EXTT17=
EXTT18=
EXTT19=
EXTT20=
EXTT21=
EXTT22=
EXTT23=
EXTT24=
PLAYORDER=
